# xmcd
#
# Track frame offsets:
#	150
#	17762
#	32632
#	51120
#	68922
#	87146
#	104900
#	123023
#	137398
#	153689
#	168062
#
# Disc length: 2431 seconds
#
# Revision: 1
# Processed by: cddbd v1.5.2PL0 Copyright (c) Steve Scherf et al.
# Submitted via: EasyCDDAExtractor 2010.6.0.0
#
DISCID=87097d0b
DTITLE=Various Artist - Hats Off To Stevie Ray Vaughan
DYEAR=1993
DGENRE=Blues
TTITLE0=PAT TRAVERS - Cold Shot
TTITLE1=TONY SPINNER - Empty Arms
TTITLE2=CRAIG ERICKSON - Telephone Song
TTITLE3=STEVE HUNTER - Lenny
TTITLE4=FRANK MARINO - The Things (That) I Used To Do
TTITLE5=RICK DERRINGER - Pride And Joy
TTITLE6=JON BUTCHER - Crossfire
TTITLE7=KEVIN RUSSELL - Tell Me
TTITLE8=RICKY MEDLOCKE - Texas Flood
TTITLE9=LESLIE WEST - Look At Little Sister
TTITLE10=Various Artist - Blues For Stevie
EXTD=
EXTT0=
EXTT1=
EXTT2=
EXTT3=
EXTT4=
EXTT5=
EXTT6=
EXTT7=
EXTT8=
EXTT9=
EXTT10=
PLAYORDER=
